<svg width="99" height="92" viewBox="0 0 99 92" fill="none" xmlns="http://www.w3.org/2000/svg">
<path d="M6.8475 64.187C9.13354 63.8595 10.7218 61.7423 10.3943 59.4563L7.96152 42.4577C7.85916 41.7497 7.31494 41.1679 6.58648 41.0229C8.26348 40.854 9.58563 39.4483 9.58563 37.7252C9.58563 36.514 8.92882 35.4631 7.96152 34.8796V22.0061L22.3278 27.752V44.2848C22.3278 46.0386 23.2371 47.7002 24.7025 48.6181C33.3298 54.0295 42.0133 56.7335 50.702 56.7335C59.3872 56.7335 68.0759 54.0278 76.6997 48.6181C78.1635 47.7002 79.0745 46.0403 79.0745 44.2848V27.752L95.7796 21.0695C96.4279 20.8102 96.8527 20.1824 96.8527 19.4847C96.8527 18.7869 96.4279 18.1591 95.7796 17.8998L51.3332 0.121553C50.9272 -0.0405175 50.4734 -0.0405175 50.0673 0.121553L5.62089 17.9015C5.00502 18.183 4.55634 18.7972 4.54781 19.4864V34.8796C3.5788 35.4631 2.92199 36.514 2.92199 37.7252C2.92199 39.4602 4.2612 40.8728 5.95867 41.0264C5.24556 41.1526 4.65699 41.7019 4.54781 42.4577L2.11505 59.4563C1.69538 62.1518 4.13325 64.6238 6.8475 64.187ZM75.6608 29.1168V44.2848C75.6608 44.8751 75.3639 45.4261 74.8862 45.7264C58.6127 55.9385 42.7878 55.9351 26.5143 45.7264C26.0366 45.4261 25.7398 44.8734 25.7398 44.2848V29.1168L50.0673 38.8478C50.4734 39.0099 50.9272 39.0099 51.3332 38.8478C51.3315 38.8478 75.6608 29.1168 75.6608 29.1168ZM50.6986 3.5455L90.5508 19.4864L50.6986 35.4273L24.665 25.0138C24.6633 25.0138 15.1131 21.1924 15.1114 21.1924H45.7597C47.7404 23.5194 56.7225 23.0843 56.4 19.4864C56.7173 15.8884 47.7455 15.4534 45.7597 17.7804H15.1114L50.6986 3.5455Z" fill="#E41961"/>
<path d="M71.0786 44.3582C72.022 44.3582 72.7846 43.5939 72.7846 42.6522V35.8282C72.7846 34.8865 72.022 34.1222 71.0786 34.1222C70.1351 34.1222 69.3726 34.8865 69.3726 35.8282V42.6522C69.3726 43.5939 70.1351 44.3582 71.0786 44.3582Z" fill="#E41961"/>
<path d="M98.8248 75.7469C98.4342 74.8888 97.4635 74.493 96.6087 74.8854C95.3992 75.288 81.9081 77.7395 62.2362 81.1293C59.7779 81.5524 57.9934 83.673 57.9934 86.1723C58.1469 87.2727 57.4953 88.4276 56.2874 88.414H42.6394C41.4367 88.4259 40.7747 87.2744 40.9334 86.1723C40.9334 83.6747 39.1489 81.5524 36.6906 81.1293C17.1159 77.7549 3.66066 75.3119 2.33681 74.8905C0.347609 74.0733 -1.02402 77.1066 0.987359 78.0227C1.34903 78.1882 2.44769 78.6898 36.1105 84.4902C37.1836 84.6522 37.6425 85.7168 37.5214 86.7063C37.5214 89.528 39.8177 91.8243 42.6394 91.8243H56.2874C59.1091 91.8243 61.4054 89.528 61.4054 86.7063C61.2775 85.7151 61.75 84.6522 62.8163 84.4902C97.4908 78.1251 99.596 79.118 98.8248 75.7469Z" fill="#E41961"/>
<path d="M85.6852 60.1489C72.2777 60.1489 57.2905 70.9684 49.4633 82.1205C41.6345 70.9684 26.649 60.1489 13.2415 60.1489C12.7434 60.1489 12.2708 60.3656 11.9467 60.7443L3.61454 70.4617C2.64724 71.5211 3.53095 73.3926 4.97422 73.2766C21.635 72.6454 33.8398 76.3901 48.4875 86.6176C49.0863 87.0099 49.8404 87.0151 50.4409 86.6176C65.0869 76.3884 77.3138 72.6335 93.9541 73.2766C95.3872 73.3909 96.2948 71.5211 95.3138 70.4617L86.9817 60.7443C86.6559 60.3656 86.1833 60.1489 85.6852 60.1489ZM8.67283 69.8015L14.0126 63.5746C23.7402 63.9175 34.6143 70.6699 42.1224 78.5721C31.3371 72.5277 20.9868 69.851 8.67283 69.8015ZM56.8025 78.5703C64.309 70.6681 75.1813 63.9175 84.9123 63.5729L90.2521 69.7998C77.9382 69.851 67.5879 72.5294 56.8025 78.5703Z" fill="#E41961"/>
</svg>
