<svg width="99" height="92" viewBox="0 0 99 92" fill="none" xmlns="http://www.w3.org/2000/svg">
<path d="M75.5583 67.3769C75.2165 67.3769 74.8683 67.2684 74.5725 67.045C73.8464 66.4996 73.7018 65.4711 74.2473 64.745C78.338 59.3071 80.5 52.8244 80.5 46C80.5 43.8577 80.2798 41.7121 79.8461 39.6257C79.6621 38.7353 80.2338 37.8679 81.121 37.6839C82.0048 37.4999 82.8788 38.0716 83.0628 38.9587C83.5425 41.2653 83.7857 43.6343 83.7857 46C83.7857 53.5407 81.3937 60.7101 76.8725 66.723C76.5473 67.1534 76.0544 67.3769 75.5583 67.3769Z" fill="#E41961"/>
<path d="M17.1383 54.4903C16.3793 54.4903 15.6958 53.958 15.5316 53.1859C15.0387 50.83 14.7857 48.4117 14.7857 46C14.7857 38.4922 17.1547 31.3523 21.6397 25.3592C22.1818 24.6297 23.2136 24.4786 23.9397 25.0273C24.6658 25.5727 24.817 26.6012 24.2716 27.3273C20.2137 32.7487 18.0714 39.2052 18.0714 46C18.0714 48.185 18.2981 50.3766 18.7483 52.509C18.9356 53.3962 18.3671 54.2669 17.48 54.4542C17.365 54.4804 17.25 54.4903 17.1383 54.4903Z" fill="#E41961"/>
<path d="M54.2143 62.4286H44.3572C43.4503 62.4286 42.7143 61.6926 42.7143 60.7857V52.5714H34.5C33.5932 52.5714 32.8572 51.8354 32.8572 50.9286V41.0714C32.8572 40.1646 33.5932 39.4286 34.5 39.4286H42.7143V31.2143C42.7143 30.3074 43.4503 29.5714 44.3572 29.5714H54.2143C55.1212 29.5714 55.8572 30.3074 55.8572 31.2143V39.4286H64.0715C64.9783 39.4286 65.7143 40.1646 65.7143 41.0714V50.9286C65.7143 51.8354 64.9783 52.5714 64.0715 52.5714H55.8572V60.7857C55.8572 61.6926 55.1212 62.4286 54.2143 62.4286ZM46 59.1429H52.5715V50.9286C52.5715 50.0217 53.3075 49.2857 54.2143 49.2857H62.4286V42.7143H54.2143C53.3075 42.7143 52.5715 41.9783 52.5715 41.0714V32.8571H46V41.0714C46 41.9783 45.264 42.7143 44.3572 42.7143H36.1429V49.2857H44.3572C45.264 49.2857 46 50.0217 46 50.9286V59.1429Z" fill="#E41961"/>
<path d="M56.3204 92H39.1C35.8899 92 32.7553 91.2837 29.7817 89.8709L18.2719 84.2786C15.3213 82.8624 12.1769 82.1429 8.94043 82.1429H1.64286C0.736 82.1429 0 81.4069 0 80.5C0 79.5931 0.736 78.8571 1.64286 78.8571H8.94043C12.673 78.8571 16.2939 79.6851 19.7011 81.3214L31.2077 86.9104C33.7246 88.1031 36.3827 88.7143 39.1 88.7143H55.9919L70.3406 82.7934C70.3406 82.6554 70.5344 81.3839 69.9036 80.3029C68.9408 78.6469 66.7164 78.5943 65.0309 78.8407C62.583 79.2186 60.559 79.8987 58.7749 80.5L58.098 80.7267C57.2339 81.006 56.3073 80.5493 56.0214 79.6851C55.7356 78.8243 56.2021 77.8944 57.063 77.6086L57.7267 77.3884C59.639 76.7444 61.8043 76.015 64.5446 75.5944C71.3197 74.6087 73.0119 78.8407 73.3766 80.1583C73.9779 82.3301 73.4784 85.0474 71.6023 85.8327L56.9447 91.8817C56.7476 91.9573 56.534 92 56.3204 92Z" fill="#E41961"/>
<path d="M34.9436 68.5959C34.3259 68.5959 33.7311 68.2443 33.4519 67.6463C30.2319 60.7167 21.8664 59.7244 15.6466 62.3037C15.4461 62.3859 15.2326 62.4286 15.0157 62.4286H1.64286C0.736 62.4286 0 61.6926 0 60.7857C0 59.8789 0.736 59.1429 1.64286 59.1429H14.697C23.5914 55.6107 32.8867 58.6434 36.4353 66.263C36.8164 67.0844 36.4616 68.0636 35.6369 68.448C35.4101 68.5466 35.1769 68.5959 34.9436 68.5959Z" fill="#E41961"/>
<path d="M50.5146 84.1898C50.301 84.1898 50.0874 84.1471 49.887 84.065L31.073 76.2548C30.2352 75.9066 29.8376 74.9471 30.1859 74.106C30.5342 73.2681 31.4969 72.8738 32.3347 73.2188L49.496 80.3423C50.2156 76.9547 48.3624 74.3196 43.9596 72.496L34.2897 68.4808C33.4519 68.1326 33.0543 67.1698 33.4026 66.332C33.7509 65.4941 34.7136 65.0966 35.5514 65.4448L45.218 69.46C51.9899 72.266 54.4739 77.2636 52.0326 83.168C51.865 83.5721 51.5463 83.8941 51.1422 84.0584C50.9417 84.1471 50.7282 84.1898 50.5146 84.1898Z" fill="#E41961"/>
<path d="M32.1047 16.5567C26.9363 16.5567 25.5234 13.0279 25.1949 11.845C24.5936 9.67314 25.093 6.95586 26.9691 6.17057L41.6267 0.121571C41.8238 0.0427141 42.0374 0 42.251 0H59.4681C62.6783 0 65.8128 0.716286 68.7864 2.12914L80.2963 7.72143C83.2501 9.13757 86.3946 9.85714 89.631 9.85714H96.9286C97.8354 9.85714 98.5714 10.5931 98.5714 11.5C98.5714 12.4069 97.8354 13.1429 96.9286 13.1429H89.631C85.8984 13.1429 82.2776 12.3149 78.8703 10.6786L67.3637 5.09286C64.8469 3.89686 62.1887 3.28571 59.4714 3.28571H42.5796L28.2276 9.20657C28.2276 9.34457 28.0337 10.6161 28.6646 11.6971C29.6306 13.3531 31.8484 13.4057 33.5373 13.1593C35.9851 12.7814 38.0091 12.1013 39.7933 11.5L40.4701 11.2733C41.3343 10.9907 42.2609 11.4507 42.5467 12.3149C42.8326 13.1757 42.366 14.1056 41.5051 14.3914L40.8414 14.6116C38.9291 15.2556 36.7638 15.985 34.0236 16.4056C33.3336 16.5107 32.6929 16.5567 32.1047 16.5567Z" fill="#E41961"/>
<path d="M76.4225 34.3193C70.2125 34.3193 64.6859 31.2176 62.1362 25.737C61.755 24.9156 62.1099 23.9364 62.9346 23.552C63.7593 23.1709 64.7352 23.529 65.1196 24.3504C68.3363 31.2767 76.6985 32.2657 82.9249 29.693C83.1253 29.6141 83.3389 29.5714 83.5557 29.5714H96.9286C97.8355 29.5714 98.5715 30.3074 98.5715 31.2143C98.5715 32.1211 97.8355 32.8571 96.9286 32.8571H83.8745C81.3773 33.8461 78.8473 34.3193 76.4225 34.3193Z" fill="#E41961"/>
<path d="M63.6509 26.68C63.4406 26.68 63.227 26.6406 63.02 26.5551L53.3535 22.54C46.5816 19.734 44.0976 14.7364 46.5389 8.832C46.7065 8.42786 47.0252 8.10586 47.4293 7.94157C47.8335 7.77729 48.2836 7.774 48.6877 7.94157L67.5017 15.7517C68.3396 16.1 68.7372 17.0594 68.3889 17.9006C68.0406 18.7417 67.0845 19.1327 66.24 18.7877L49.0787 11.6643C48.3592 15.0519 50.2123 17.687 54.6152 19.5106L64.285 23.5257C65.1229 23.874 65.5205 24.8367 65.1722 25.6746C64.906 26.2989 64.2949 26.68 63.6509 26.68Z" fill="#E41961"/>
<path d="M70.6921 72.4007C70.2716 72.4007 69.851 72.2397 69.529 71.921C68.8883 71.2803 68.8883 70.2387 69.529 69.598C70.173 68.9573 71.3263 68.8423 71.967 69.483C72.6077 70.1237 72.7227 71.0503 72.082 71.691L71.852 71.921C71.5333 72.2397 71.1127 72.4007 70.6921 72.4007Z" fill="#E41961"/>
<path d="M27.9778 23.115C27.554 23.115 27.1301 22.9507 26.8081 22.6254C26.1707 21.9782 26.1773 20.9399 26.8246 20.3024L27.0578 20.0724C27.7018 19.435 28.7434 19.4416 29.3808 20.0889C30.0183 20.7362 30.0117 21.7744 29.3644 22.4119L29.1311 22.6419C28.8124 22.9573 28.3951 23.115 27.9778 23.115Z" fill="#E41961"/>
</svg>
