<svg width="112" height="93" viewBox="0 0 112 93" fill="none" xmlns="http://www.w3.org/2000/svg">
<path d="M55.4998 34.0089C64.8762 34.0089 72.5044 26.3806 72.5044 17.0044C72.5044 13.7669 71.5907 10.6169 69.8614 7.8956C69.3771 7.1335 68.367 6.90838 67.6052 7.39262C66.8433 7.87686 66.6182 8.88675 67.1022 9.64885C68.4976 11.8451 69.2353 14.3886 69.2353 17.0044C69.2353 19.6797 68.4636 22.1772 67.1351 24.2909C65.9328 21.4755 63.7371 19.1759 60.9696 17.8476C61.7555 16.7477 62.2197 15.4031 62.2197 13.9512C62.2197 10.2458 59.205 7.23114 55.4996 7.23114C51.7941 7.23114 48.7795 10.2458 48.7795 13.9512C48.7795 15.4031 49.2439 16.7477 50.0295 17.8476C47.262 19.1759 45.0664 21.4755 43.8641 24.2909C42.5356 22.1772 41.7641 19.68 41.7641 17.0046C41.7641 9.4307 47.9259 3.26895 55.4996 3.26895C57.9842 3.26895 60.4178 3.93887 62.5376 5.20657C63.3122 5.66988 64.3157 5.4173 64.7793 4.64235C65.2424 3.8676 64.99 2.86404 64.215 2.40072C61.5883 0.830313 58.5746 0 55.4994 0C46.1231 0 38.4949 7.6282 38.4949 17.0046C38.4954 26.3806 46.1236 34.0089 55.4998 34.0089ZM55.4998 10.4999C57.4028 10.4999 58.9509 12.048 58.9509 13.951C58.9509 15.854 57.4028 17.4021 55.4998 17.4021C53.5968 17.4021 52.0487 15.854 52.0487 13.951C52.0487 12.0478 53.5968 10.4999 55.4998 10.4999ZM53.0396 20.2025C53.8021 20.5037 54.6316 20.6711 55.5 20.6711C56.3685 20.6711 57.1979 20.5037 57.9604 20.2025C61.327 21.1144 63.9117 23.8374 64.6587 27.2297C62.2264 29.4105 59.0161 30.7399 55.5 30.7399C51.9839 30.7399 48.7734 29.4103 46.3413 27.2297C47.0881 23.8372 49.6728 21.1141 53.0396 20.2025Z" fill="#E41961"/>
<path d="M55.4998 58.2122C52.2241 58.2122 49.0432 59.146 46.301 60.913C45.5422 61.4018 45.3234 62.4134 45.8122 63.1722C46.301 63.9311 47.3124 64.1494 48.0715 63.6608C50.2848 62.2349 52.8535 61.4811 55.4998 61.4811C63.0735 61.4811 69.2355 67.6429 69.2355 75.2166C69.2355 77.8921 68.4638 80.3894 67.1353 82.5033C65.933 79.6879 63.7374 77.3883 60.9699 76.0598C61.7557 74.9599 62.2199 73.6152 62.2199 72.1632C62.2199 68.4577 59.2053 65.4431 55.4998 65.4431C51.7944 65.4431 48.7797 68.4577 48.7797 72.1632C48.7797 73.615 49.2441 74.9596 50.0298 76.0598C47.2623 77.388 45.0666 79.6874 43.8643 82.5031C42.536 80.3894 41.7643 77.8921 41.7643 75.2166C41.7643 72.7623 42.4188 70.3546 43.6573 68.2535C44.1156 67.4759 43.8567 66.4739 43.0791 66.0156C42.3015 65.5573 41.2997 65.816 40.841 66.5937C39.3065 69.1971 38.4954 72.1791 38.4954 75.2164C38.4954 84.5928 46.1236 92.221 55.4998 92.221C64.8763 92.221 72.5045 84.5928 72.5045 75.2164C72.5045 65.8404 64.8763 58.2122 55.4998 58.2122ZM55.4998 68.7122C57.4028 68.7122 58.951 70.2604 58.951 72.1634C58.951 74.0663 57.4028 75.6147 55.4998 75.6147C53.5969 75.6147 52.0487 74.0666 52.0487 72.1634C52.0487 70.2602 53.5969 68.7122 55.4998 68.7122ZM46.3411 85.4421C47.0882 82.0498 49.6728 79.3265 53.0394 78.4149C53.8019 78.7161 54.6314 78.8835 55.4998 78.8835C56.3683 78.8835 57.1979 78.7161 57.9605 78.4149C61.3268 79.3267 63.9113 82.05 64.6585 85.4421C62.2262 87.6229 59.0159 88.9523 55.4998 88.9523C51.9837 88.9525 48.7734 87.6229 46.3411 85.4421Z" fill="#E41961"/>
<path d="M94.5757 58.2122C85.1993 58.2122 77.5711 65.8404 77.5711 75.2166C77.5711 84.593 85.1993 92.2212 94.5757 92.2212C103.952 92.2212 111.58 84.593 111.58 75.2166C111.58 65.8404 103.952 58.2122 94.5757 58.2122ZM94.5757 61.4811C102.149 61.4811 108.311 67.6429 108.311 75.2166C108.311 77.8921 107.54 80.3894 106.211 82.5031C105.009 79.6874 102.813 77.388 100.046 76.0598C100.831 74.9599 101.296 73.6152 101.296 72.1634C101.296 68.4579 98.281 65.4433 94.5755 65.4433C90.8698 65.4433 87.8552 68.4579 87.8552 72.1634C87.8552 73.6152 88.3196 74.9599 89.1053 76.06C86.3378 77.3883 84.1421 79.6879 82.9398 82.5033C81.6113 80.3896 80.8396 77.8923 80.8396 75.2168C80.8398 67.6431 87.0018 61.4811 94.5757 61.4811ZM91.1244 72.1634C91.1244 70.2604 92.6726 68.7122 94.5757 68.7122C96.4787 68.7122 98.0269 70.2604 98.0269 72.1634C98.0269 74.0663 96.4789 75.6147 94.5757 75.6147C92.6726 75.6147 91.1244 74.0663 91.1244 72.1634ZM85.4168 85.4421C86.1641 82.0496 88.7487 79.3265 92.1153 78.4151C92.8779 78.7163 93.7073 78.8837 94.5755 78.8837C95.4438 78.8837 96.2732 78.7163 97.0357 78.4151C100.403 79.3265 102.987 82.0496 103.734 85.4423C101.302 87.6231 98.0916 88.9525 94.5755 88.9525C91.0594 88.9525 87.8489 87.6231 85.4168 85.4421Z" fill="#E41961"/>
<path d="M17.0046 58.2122C7.6282 58.2122 0 65.8404 0 75.2168C0 84.5932 7.6282 92.2214 17.0046 92.2214C26.3809 92.2214 34.0091 84.5932 34.0091 75.2168C34.0091 65.8404 26.3809 58.2122 17.0046 58.2122ZM7.8457 85.4423C8.59276 82.0502 11.1774 79.327 14.544 78.4151C15.3065 78.7163 16.1362 78.8837 17.0046 78.8837C17.8731 78.8837 18.7025 78.7163 19.4651 78.4151C22.8319 79.3267 25.4161 82.0496 26.1634 85.4423C23.7313 87.6231 20.5207 88.9525 17.0046 88.9525C13.4886 88.9525 10.278 87.6231 7.8457 85.4423ZM18.6047 75.2185C18.5829 75.229 18.5607 75.2388 18.5393 75.2501C18.0764 75.4814 17.5564 75.6147 17.0046 75.6147C15.1017 75.6147 13.5535 74.0666 13.5535 72.1634C13.5535 70.2602 15.1017 68.7122 17.0046 68.7122C18.9076 68.7122 20.4558 70.2604 20.4558 72.1634C20.4558 73.4888 19.7037 74.6406 18.6047 75.2185ZM28.6401 82.5031C27.4378 79.6874 25.242 77.3883 22.4745 76.06C23.2603 74.9601 23.7245 73.6155 23.7245 72.1634C23.7245 68.4579 20.7099 65.4433 17.0044 65.4433C13.299 65.4433 10.2843 68.4579 10.2843 72.1634C10.2843 73.6152 10.7485 74.9599 11.5344 76.0598C8.76711 77.388 6.57146 79.6879 5.36892 82.5031C4.04064 80.3896 3.26895 77.8923 3.26895 75.2168C3.26895 67.6431 9.4307 61.4813 17.0046 61.4813C24.5786 61.4813 30.7401 67.6431 30.7401 75.2168C30.7401 77.8921 29.9684 80.3894 28.6401 82.5031Z" fill="#E41961"/>
<path d="M85.908 47.5046H92.3962C92.6967 47.5046 92.941 47.7489 92.941 48.0494V53.0472C92.941 53.9501 93.6726 54.6817 94.5755 54.6817C95.4784 54.6817 96.21 53.9501 96.21 53.0472V48.0494C96.21 45.9466 94.499 44.2357 92.3962 44.2357H85.908C85.0051 44.2357 84.2735 44.9673 84.2735 45.8701C84.2735 46.773 85.0053 47.5046 85.908 47.5046Z" fill="#E41961"/>
<path d="M17.0046 54.6815C17.9073 54.6815 18.6391 53.9499 18.6391 53.047V48.0492C18.6391 47.7487 18.8836 47.5044 19.1839 47.5044H54.1556V53.047C54.1556 53.9499 54.8874 54.6815 55.7901 54.6815C56.6929 54.6815 57.4245 53.9499 57.4245 53.047V47.5044H78.7847C79.6876 47.5044 80.4192 46.7728 80.4192 45.8699C80.4192 44.967 79.6876 44.2354 78.7847 44.2354H57.4245V39.1154C57.4245 38.2125 56.6929 37.4809 55.7901 37.4809C54.8874 37.4809 54.1556 38.2125 54.1556 39.1154V44.2354H19.1839C17.0811 44.2354 15.3701 45.9464 15.3701 48.0492V53.047C15.3701 53.9499 16.102 54.6815 17.0046 54.6815Z" fill="#E41961"/>
</svg>
